<svg width="92" height="18" viewBox="0 0 92 18" fill="none" xmlns="http://www.w3.org/2000/svg">
<path d="M5.886 17.144C4.29 17.144 3.012 16.844 2.052 16.244C1.092 15.632 0.612 14.702 0.612 13.454C0.612 12.794 0.726 12.29 0.954 11.942C1.182 11.594 1.518 11.42 1.962 11.42C2.286 11.42 2.55 11.504 2.754 11.672C2.958 11.84 3.06 12.056 3.06 12.32C3.06 12.56 3.042 12.77 3.006 12.95C3.006 12.998 2.994 13.082 2.97 13.202C2.958 13.322 2.952 13.448 2.952 13.58C2.952 14.12 3.222 14.522 3.762 14.786C4.314 15.05 5.082 15.182 6.066 15.182C7.086 15.182 7.884 15.002 8.46 14.642C9.036 14.27 9.324 13.754 9.324 13.094C9.324 12.686 9.192 12.338 8.928 12.05C8.664 11.75 8.334 11.504 7.938 11.312C7.542 11.108 6.984 10.862 6.264 10.574C5.34 10.214 4.584 9.872 3.996 9.548C3.42 9.224 2.922 8.786 2.502 8.234C2.094 7.67 1.89 6.974 1.89 6.146C1.89 5.282 2.118 4.514 2.574 3.842C3.042 3.17 3.708 2.648 4.572 2.276C5.448 1.904 6.474 1.718 7.65 1.718C8.526 1.718 9.33 1.85 10.062 2.114C10.794 2.366 11.376 2.756 11.808 3.284C12.252 3.812 12.474 4.46 12.474 5.228C12.474 5.984 12.36 6.554 12.132 6.938C11.904 7.322 11.568 7.514 11.124 7.514C10.812 7.514 10.548 7.418 10.332 7.226C10.128 7.034 10.026 6.806 10.026 6.542C10.026 6.314 10.044 6.104 10.08 5.912C10.116 5.552 10.134 5.324 10.134 5.228C10.134 4.724 9.888 4.34 9.396 4.076C8.904 3.812 8.292 3.68 7.56 3.68C6.528 3.68 5.736 3.872 5.184 4.256C4.644 4.628 4.374 5.156 4.374 5.84C4.374 6.296 4.512 6.686 4.788 7.01C5.076 7.334 5.43 7.604 5.85 7.82C6.27 8.036 6.858 8.294 7.614 8.594C8.526 8.966 9.258 9.302 9.81 9.602C10.362 9.902 10.83 10.31 11.214 10.826C11.61 11.342 11.808 11.978 11.808 12.734C11.808 14.15 11.268 15.242 10.188 16.01C9.12 16.766 7.686 17.144 5.886 17.144ZM15.0926 17.09C14.5526 17.09 14.1086 16.844 13.7606 16.352C13.4246 15.848 13.2566 15.224 13.2566 14.48C13.2566 13.58 13.3166 12.758 13.4366 12.014C13.5566 11.258 13.7546 10.46 14.0306 9.62C14.1506 9.26 14.3186 9.002 14.5346 8.846C14.7506 8.69 15.0926 8.612 15.5606 8.612C15.8246 8.612 16.0046 8.654 16.1006 8.738C16.2086 8.822 16.2626 8.948 16.2626 9.116C16.2626 9.212 16.1966 9.536 16.0646 10.088C15.9446 10.532 15.8486 10.934 15.7766 11.294C15.5366 12.554 15.4166 13.394 15.4166 13.814C15.4166 14.066 15.4466 14.246 15.5066 14.354C15.5666 14.45 15.6626 14.498 15.7946 14.498C15.9746 14.498 16.1966 14.318 16.4606 13.958C16.7366 13.598 17.0246 13.052 17.3246 12.32C17.6366 11.588 17.9366 10.688 18.2246 9.62C18.3206 9.26 18.4646 9.002 18.6566 8.846C18.8606 8.69 19.1606 8.612 19.5566 8.612C19.8326 8.612 20.0246 8.648 20.1326 8.72C20.2406 8.78 20.2946 8.9 20.2946 9.08C20.2946 9.38 20.1446 10.202 19.8446 11.546C19.5086 13.082 19.3406 14.03 19.3406 14.39C19.3406 14.618 19.3886 14.798 19.4846 14.93C19.5806 15.05 19.7066 15.11 19.8626 15.11C20.1026 15.11 20.3846 14.966 20.7086 14.678C21.0446 14.378 21.4886 13.898 22.0406 13.238C22.1846 13.07 22.3466 12.986 22.5266 12.986C22.6826 12.986 22.8026 13.058 22.8866 13.202C22.9826 13.346 23.0306 13.544 23.0306 13.796C23.0306 14.276 22.9166 14.648 22.6886 14.912C22.1726 15.548 21.6146 16.07 21.0146 16.478C20.4266 16.886 19.7546 17.09 18.9986 17.09C18.4226 17.09 17.9966 16.868 17.7206 16.424C17.4566 15.98 17.3246 15.356 17.3246 14.552C17.1206 15.368 16.8146 15.998 16.4066 16.442C15.9986 16.874 15.5606 17.09 15.0926 17.09ZM31.795 12.986C31.951 12.986 32.071 13.058 32.155 13.202C32.251 13.346 32.299 13.544 32.299 13.796C32.299 14.276 32.185 14.648 31.957 14.912C31.465 15.512 30.925 16.028 30.337 16.46C29.749 16.88 29.167 17.09 28.591 17.09C27.679 17.09 26.983 16.556 26.503 15.488C25.999 16.124 25.555 16.55 25.171 16.766C24.799 16.982 24.361 17.09 23.857 17.09C23.125 17.09 22.519 16.82 22.039 16.28C21.571 15.728 21.337 15.014 21.337 14.138C21.337 13.178 21.541 12.29 21.949 11.474C22.357 10.646 22.915 9.974 23.623 9.458C24.343 8.93 25.147 8.618 26.035 8.522C26.263 6.194 26.695 4.208 27.331 2.564C27.979 0.907999 28.825 0.079999 29.869 0.079999C30.385 0.079999 30.811 0.313999 31.147 0.782C31.495 1.25 31.669 1.958 31.669 2.906C31.669 4.25 31.339 5.822 30.679 7.622C30.019 9.422 29.137 11.27 28.033 13.166C28.081 13.862 28.183 14.36 28.339 14.66C28.507 14.96 28.717 15.11 28.969 15.11C29.293 15.11 29.623 14.966 29.959 14.678C30.295 14.39 30.745 13.91 31.309 13.238C31.453 13.07 31.615 12.986 31.795 12.986ZM29.671 1.844C29.443 1.844 29.215 2.252 28.987 3.068C28.759 3.872 28.561 4.928 28.393 6.236C28.237 7.544 28.123 8.912 28.051 10.34C29.395 7.412 30.067 5.06 30.067 3.284C30.067 2.828 30.025 2.474 29.941 2.222C29.869 1.97 29.779 1.844 29.671 1.844ZM24.487 15.272C24.715 15.272 24.943 15.182 25.171 15.002C25.399 14.81 25.687 14.462 26.035 13.958C25.915 13.31 25.855 12.584 25.855 11.78C25.855 11.492 25.867 11.024 25.891 10.376C25.231 10.58 24.679 11.024 24.235 11.708C23.803 12.38 23.587 13.13 23.587 13.958C23.587 14.834 23.887 15.272 24.487 15.272ZM34.1827 17.486C33.5587 17.486 33.0787 17.342 32.7427 17.054C32.4187 16.766 32.2567 16.442 32.2567 16.082C32.2567 15.77 32.3707 15.5 32.5987 15.272C32.8267 15.044 33.1627 14.93 33.6067 14.93C33.7627 14.93 33.9427 14.948 34.1467 14.984C34.3627 15.008 34.5247 15.026 34.6327 15.038C34.6207 14.726 34.5487 14.432 34.4167 14.156C34.2967 13.88 34.1407 13.616 33.9487 13.364C33.7567 13.1 33.5767 12.872 33.4087 12.68C33.0367 13.388 32.6647 13.976 32.2927 14.444C31.9327 14.912 31.5367 15.356 31.1047 15.776C30.8887 15.992 30.6607 16.1 30.4207 16.1C30.2287 16.1 30.0727 16.034 29.9527 15.902C29.8327 15.758 29.7727 15.584 29.7727 15.38C29.7727 15.14 29.8567 14.918 30.0247 14.714L30.2587 14.426C30.9187 13.61 31.4167 12.938 31.7527 12.41C31.9687 12.062 32.1847 11.648 32.4007 11.168C32.6287 10.688 32.9227 10.034 33.2827 9.206C33.5107 8.678 33.9847 8.414 34.7047 8.414C35.0407 8.414 35.2747 8.444 35.4067 8.504C35.5387 8.564 35.6047 8.66 35.6047 8.792C35.6047 8.864 35.5807 8.978 35.5327 9.134C35.4847 9.29 35.4187 9.446 35.3347 9.602C35.1187 10.034 35.0107 10.4 35.0107 10.7C35.0107 10.88 35.0707 11.078 35.1907 11.294C35.3227 11.51 35.5207 11.78 35.7847 12.104C36.1687 12.608 36.4567 13.04 36.6487 13.4C36.8527 13.748 36.9547 14.132 36.9547 14.552C36.9547 15.056 36.8347 15.536 36.5947 15.992C36.3667 16.436 36.0427 16.796 35.6227 17.072C35.2027 17.348 34.7227 17.486 34.1827 17.486ZM47.3624 17.09C46.6664 17.09 45.8804 17.03 45.0044 16.91C44.5244 16.85 44.1944 16.724 44.0144 16.532C43.8344 16.34 43.7564 16.028 43.7804 15.596C43.8644 14.408 44.0624 12.944 44.3744 11.204C44.6864 9.452 45.0644 7.766 45.5084 6.146C45.5924 5.846 45.7604 5.636 46.0124 5.516C46.2644 5.396 46.5944 5.336 47.0024 5.336C47.7344 5.336 48.1004 5.54 48.1004 5.948C48.1004 6.116 48.0644 6.308 47.9924 6.524C47.6804 7.484 47.3684 8.774 47.0564 10.394C46.7444 12.002 46.5224 13.538 46.3904 15.002C46.7504 15.038 47.1584 15.056 47.6144 15.056C49.7144 15.056 51.2804 14.42 52.3124 13.148C53.3564 11.876 53.8784 10.178 53.8784 8.054C53.8784 6.626 53.4704 5.522 52.6544 4.742C51.8384 3.962 50.6864 3.572 49.1984 3.572C48.2384 3.572 47.2844 3.722 46.3364 4.022C45.4004 4.322 44.5544 4.718 43.7984 5.21C43.6424 5.318 43.4744 5.372 43.2944 5.372C43.0904 5.372 42.9284 5.288 42.8084 5.12C42.6884 4.94 42.6284 4.724 42.6284 4.472C42.6284 4.184 42.6764 3.95 42.7724 3.77C42.8684 3.578 43.0304 3.404 43.2584 3.248C44.0864 2.684 45.0584 2.258 46.1744 1.97C47.2904 1.67 48.3644 1.52 49.3964 1.52C50.8604 1.52 52.1264 1.778 53.1944 2.294C54.2624 2.798 55.0844 3.542 55.6604 4.526C56.2364 5.51 56.5244 6.698 56.5244 8.09C56.5244 9.902 56.1644 11.486 55.4444 12.842C54.7244 14.186 53.6744 15.23 52.2944 15.974C50.9144 16.718 49.2704 17.09 47.3624 17.09ZM59.9115 7.424C59.4075 7.424 59.0295 7.31 58.7775 7.082C58.5255 6.842 58.3995 6.512 58.3995 6.092C58.3995 5.672 58.5615 5.324 58.8855 5.048C59.2215 4.76 59.6355 4.616 60.1275 4.616C60.5715 4.616 60.9315 4.724 61.2075 4.94C61.4835 5.156 61.6215 5.462 61.6215 5.858C61.6215 6.338 61.4655 6.722 61.1535 7.01C60.8415 7.286 60.4275 7.424 59.9115 7.424ZM59.7675 17.09C58.9875 17.09 58.4175 16.814 58.0575 16.262C57.7095 15.71 57.5355 14.978 57.5355 14.066C57.5355 13.526 57.6015 12.836 57.7335 11.996C57.8775 11.144 58.0575 10.352 58.2735 9.62C58.3815 9.236 58.5255 8.972 58.7055 8.828C58.8855 8.684 59.1735 8.612 59.5695 8.612C60.1815 8.612 60.4875 8.816 60.4875 9.224C60.4875 9.524 60.3735 10.22 60.1455 11.312C59.8575 12.632 59.7135 13.526 59.7135 13.994C59.7135 14.354 59.7615 14.63 59.8575 14.822C59.9535 15.014 60.1155 15.11 60.3435 15.11C60.5595 15.11 60.8295 14.96 61.1535 14.66C61.4775 14.36 61.9095 13.886 62.4495 13.238C62.5935 13.07 62.7555 12.986 62.9355 12.986C63.0915 12.986 63.2115 13.058 63.2955 13.202C63.3915 13.346 63.4395 13.544 63.4395 13.796C63.4395 14.276 63.3255 14.648 63.0975 14.912C61.9095 16.364 60.7995 17.09 59.7675 17.09ZM63.2611 17.09C62.8051 17.09 62.4811 16.85 62.2891 16.37C62.1091 15.89 62.0191 15.122 62.0191 14.066C62.0191 12.506 62.2411 11.024 62.6851 9.62C62.7931 9.272 62.9671 9.02 63.2071 8.864C63.4591 8.696 63.8071 8.612 64.2511 8.612C64.4911 8.612 64.6591 8.642 64.7551 8.702C64.8511 8.762 64.8991 8.876 64.8991 9.044C64.8991 9.236 64.8091 9.668 64.6291 10.34C64.5091 10.82 64.4131 11.24 64.3411 11.6C64.2691 11.96 64.2091 12.404 64.1611 12.932C64.5571 11.9 65.0011 11.06 65.4931 10.412C65.9851 9.764 66.4651 9.302 66.9331 9.026C67.4131 8.75 67.8511 8.612 68.2471 8.612C69.0271 8.612 69.4171 9.002 69.4171 9.782C69.4171 9.938 69.3631 10.316 69.2551 10.916C69.1591 11.396 69.1111 11.696 69.1111 11.816C69.1111 12.236 69.2611 12.446 69.5611 12.446C69.8971 12.446 70.3291 12.182 70.8571 11.654C71.0131 11.498 71.1751 11.42 71.3431 11.42C71.4991 11.42 71.6191 11.492 71.7031 11.636C71.7991 11.768 71.8471 11.948 71.8471 12.176C71.8471 12.62 71.7271 12.968 71.4871 13.22C71.1511 13.568 70.7551 13.868 70.2991 14.12C69.8551 14.36 69.3811 14.48 68.8771 14.48C68.2411 14.48 67.7551 14.318 67.4191 13.994C67.0951 13.67 66.9331 13.232 66.9331 12.68C66.9331 12.5 66.9511 12.32 66.9871 12.14C67.0111 11.9 67.0231 11.738 67.0231 11.654C67.0231 11.462 66.9571 11.366 66.8251 11.366C66.6451 11.366 66.4051 11.57 66.1051 11.978C65.8171 12.374 65.5291 12.902 65.2411 13.562C64.9531 14.222 64.7191 14.918 64.5391 15.65C64.4071 16.214 64.2511 16.598 64.0711 16.802C63.9031 16.994 63.6331 17.09 63.2611 17.09ZM78.2025 12.986C78.3585 12.986 78.4785 13.058 78.5625 13.202C78.6585 13.346 78.7065 13.544 78.7065 13.796C78.7065 14.276 78.5925 14.648 78.3645 14.912C77.9205 15.452 77.2905 15.95 76.4745 16.406C75.6705 16.862 74.8065 17.09 73.8825 17.09C72.6225 17.09 71.6445 16.748 70.9485 16.064C70.2525 15.38 69.9045 14.444 69.9045 13.256C69.9045 12.428 70.0785 11.66 70.4265 10.952C70.7745 10.232 71.2545 9.662 71.8665 9.242C72.4905 8.822 73.1925 8.612 73.9725 8.612C74.6685 8.612 75.2265 8.822 75.6465 9.242C76.0665 9.65 76.2765 10.208 76.2765 10.916C76.2765 11.744 75.9765 12.458 75.3765 13.058C74.7885 13.646 73.7865 14.114 72.3705 14.462C72.6705 15.014 73.2405 15.29 74.0805 15.29C74.6205 15.29 75.2325 15.104 75.9165 14.732C76.6125 14.348 77.2125 13.85 77.7165 13.238C77.8605 13.07 78.0225 12.986 78.2025 12.986ZM73.6665 10.376C73.2225 10.376 72.8445 10.634 72.5325 11.15C72.2325 11.666 72.0825 12.29 72.0825 13.022V13.058C72.7905 12.89 73.3485 12.638 73.7565 12.302C74.1645 11.966 74.3685 11.576 74.3685 11.132C74.3685 10.904 74.3025 10.724 74.1705 10.592C74.0505 10.448 73.8825 10.376 73.6665 10.376ZM80.679 17.09C79.503 17.09 78.585 16.76 77.925 16.1C77.277 15.428 76.953 14.546 76.953 13.454C76.953 12.482 77.145 11.63 77.529 10.898C77.913 10.166 78.411 9.602 79.023 9.206C79.635 8.81 80.277 8.612 80.949 8.612C81.609 8.612 82.119 8.81 82.479 9.206C82.851 9.59 83.037 10.088 83.037 10.7C83.037 11.204 82.923 11.63 82.695 11.978C82.479 12.326 82.191 12.5 81.831 12.5C81.603 12.5 81.417 12.446 81.273 12.338C81.141 12.23 81.075 12.08 81.075 11.888C81.075 11.804 81.087 11.708 81.111 11.6C81.135 11.492 81.153 11.414 81.165 11.366C81.225 11.186 81.255 11.018 81.255 10.862C81.255 10.706 81.213 10.586 81.129 10.502C81.057 10.418 80.949 10.376 80.805 10.376C80.529 10.376 80.271 10.502 80.031 10.754C79.791 10.994 79.599 11.324 79.455 11.744C79.311 12.164 79.239 12.626 79.239 13.13C79.239 14.522 79.845 15.218 81.057 15.218C81.549 15.218 82.077 15.056 82.641 14.732C83.217 14.396 83.781 13.898 84.333 13.238C84.477 13.07 84.639 12.986 84.819 12.986C84.975 12.986 85.095 13.058 85.179 13.202C85.275 13.346 85.323 13.544 85.323 13.796C85.323 14.252 85.209 14.624 84.981 14.912C84.417 15.608 83.739 16.148 82.947 16.532C82.167 16.904 81.411 17.09 80.679 17.09ZM86.9258 10.322C86.9018 10.922 86.8898 11.39 86.8898 11.726C86.8898 12.59 86.9318 13.268 87.0158 13.76C87.1118 14.24 87.2618 14.588 87.4658 14.804C87.6818 15.008 87.9758 15.11 88.3478 15.11C88.5398 15.11 88.7678 15.05 89.0318 14.93C89.2958 14.81 89.5358 14.654 89.7518 14.462C89.8838 14.342 90.0158 14.282 90.1478 14.282C90.2918 14.282 90.4058 14.366 90.4898 14.534C90.5858 14.69 90.6338 14.882 90.6338 15.11C90.6338 15.338 90.5858 15.56 90.4898 15.776C90.4058 15.992 90.2738 16.172 90.0938 16.316C89.4698 16.832 88.7618 17.09 87.9698 17.09C86.8298 17.09 85.9958 16.616 85.4678 15.668C84.9398 14.708 84.6758 13.46 84.6758 11.924C84.6758 11.396 84.6938 10.862 84.7298 10.322H84.0278C83.6678 10.322 83.4218 10.256 83.2898 10.124C83.1698 9.992 83.1098 9.782 83.1098 9.494C83.1098 8.822 83.3798 8.486 83.9198 8.486H84.9458C85.1498 7.166 85.4618 5.96 85.8818 4.868C86.3018 3.776 86.8058 2.906 87.3938 2.258C87.9938 1.61 88.6358 1.286 89.3198 1.286C89.8238 1.286 90.2198 1.508 90.5078 1.952C90.7958 2.396 90.9398 2.954 90.9398 3.626C90.9398 5.486 90.1598 7.106 88.5998 8.486H90.6158C90.8078 8.486 90.9458 8.528 91.0298 8.612C91.1138 8.696 91.1558 8.852 91.1558 9.08C91.1558 9.908 90.4778 10.322 89.1218 10.322H86.9258ZM88.8338 3.014C88.6538 3.014 88.4498 3.242 88.2218 3.698C88.0058 4.142 87.7958 4.766 87.5918 5.57C87.3998 6.362 87.2378 7.244 87.1058 8.216C87.8138 7.604 88.3418 6.92 88.6898 6.164C89.0498 5.396 89.2298 4.7 89.2298 4.076C89.2298 3.368 89.0978 3.014 88.8338 3.014Z" fill="white"/>
</svg>
